<svg xmlns="http://www.w3.org/2000/svg" viewBox="0 0 640 420" role="img" aria-labelledby="heroGraphicTitle heroGraphicDesc">
  <title id="heroGraphicTitle">Lifeschool hero illustration</title>
  <desc id="heroGraphicDesc">Abstract flowing shapes and paths that suggest clarity, reflection, and intentional direction.</desc>
  <defs>
    <linearGradient id="bg" x1="0" y1="0" x2="1" y2="1">
      <stop offset="0" stop-color="#1e3a8a" stop-opacity="0.22" />
      <stop offset="1" stop-color="#2aa198" stop-opacity="0.24" />
    </linearGradient>
    <linearGradient id="line" x1="0" y1="0" x2="1" y2="1">
      <stop offset="0" stop-color="#1e3a8a" />
      <stop offset="1" stop-color="#2aa198" />
    </linearGradient>
    <filter id="soft" x="-20%" y="-20%" width="140%" height="140%">
      <feGaussianBlur stdDeviation="8" />
    </filter>
  </defs>

  <rect x="28" y="24" width="584" height="372" rx="34" fill="url(#bg)" />

  <circle cx="152" cy="112" r="50" fill="#2aa198" fill-opacity="0.16" filter="url(#soft)" />
  <circle cx="506" cy="332" r="64" fill="#1e3a8a" fill-opacity="0.15" filter="url(#soft)" />

  <path d="M88 272C165 210 230 306 304 250C361 207 430 133 534 160" fill="none" stroke="url(#line)" stroke-width="14" stroke-linecap="round" />
  <path d="M96 182C183 145 255 206 321 175C386 145 442 88 544 101" fill="none" stroke="#f6a623" stroke-opacity="0.72" stroke-width="7" stroke-linecap="round" />

  <g fill="none" stroke="#0f172a" stroke-opacity="0.5" stroke-width="3">
    <path d="M136 306h94" />
    <path d="M136 326h136" />
    <path d="M136 346h78" />
  </g>

  <g transform="translate(402 218)">
    <rect x="-78" y="-78" width="156" height="156" rx="26" fill="#ffffff" fill-opacity="0.68" />
    <path d="M-34 5L-2 -27L22 -3L48 -31" fill="none" stroke="#1e3a8a" stroke-width="8" stroke-linecap="round" stroke-linejoin="round" />
    <circle cx="-35" cy="5" r="8" fill="#2aa198" />
    <circle cx="-2" cy="-27" r="8" fill="#2aa198" />
    <circle cx="22" cy="-3" r="8" fill="#2aa198" />
    <circle cx="48" cy="-31" r="8" fill="#2aa198" />
  </g>
</svg>
