<svg xmlns="http://www.w3.org/2000/svg" viewBox="0 0 768 768" role="img" aria-labelledby="logoTitle logoDesc">
  <title id="logoTitle">Lifeschool logo</title>
  <desc id="logoDesc">A human-tree symbol inside a circular canopy with a golden sun.</desc>
  <defs>
    <linearGradient id="canopyGradient" x1="0%" y1="45%" x2="100%" y2="55%">
      <stop offset="0%" stop-color="#16a0dc" />
      <stop offset="45%" stop-color="#16b3b1" />
      <stop offset="100%" stop-color="#74c35a" />
    </linearGradient>
    <linearGradient id="trunkGradient" x1="18%" y1="50%" x2="100%" y2="50%">
      <stop offset="0%" stop-color="#102245" />
      <stop offset="100%" stop-color="#071b3c" />
    </linearGradient>
    <linearGradient id="sunGradient" x1="0%" y1="0%" x2="100%" y2="100%">
      <stop offset="0%" stop-color="#ffb21f" />
      <stop offset="100%" stop-color="#f49a00" />
    </linearGradient>
  </defs>

  <circle cx="384" cy="302" r="238" fill="url(#canopyGradient)" />

  <path
    d="M145 370c46-31 112-26 161 8-12-50-10-97 11-137 18-34 48-70 88-99-15 0-27 2-37 6-40 15-68 43-89 92-18-23-39-33-72-35-10 0-22 2-34 5 39 40 50 87 47 145-26-6-56-4-75 0z"
    fill="#ffffff"
  />
  <path
    d="M623 370c-46-31-112-26-161 8 12-50 10-97-11-137-18-34-48-70-88-99 15 0 27 2 37 6 40 15 68 43 89 92 18-23 39-33 72-35 10 0 22 2 34 5-39 40-50 87-47 145 26-6 56-4 75 0z"
    fill="#ffffff"
  />

  <circle cx="384" cy="317" r="49" fill="url(#sunGradient)" />

  <path
    d="M271 312c1 58 27 101 62 139 17-42 40-73 66-95 24-22 51-42 69-73 8 40-8 81-35 117-26 35-37 82-33 139 2 30 5 53 14 65h-98c10-15 14-40 15-71 2-52-7-96-31-132-31-44-41-88-29-129z"
    fill="url(#trunkGradient)"
  />
  <path
    d="M276 458c30 1 59 7 78 15-18 9-33 18-47 33-13 15-26 33-29 53-20-20-23-60-2-101z"
    fill="url(#trunkGradient)"
  />
  <path
    d="M492 458c-30 1-59 7-78 15 18 9 33 18 47 33 13 15 26 33 29 53 20-20 23-60 2-101z"
    fill="url(#trunkGradient)"
  />

  <path
    d="M188 510c21 2 46 16 65 34-17 13-40 20-66 14-15-3-30-12-38-22 11-17 22-24 39-26z"
    fill="url(#canopyGradient)"
  />
  <path
    d="M580 510c-21 2-46 16-65 34 17 13 40 20 66 14 15-3 30-12 38-22-11-17-22-24-39-26z"
    fill="url(#canopyGradient)"
  />

  <path
    d="M140 637c144-44 344-52 488 0h-488z"
    fill="url(#trunkGradient)"
  />
</svg>
